<mxfile host="app.diagrams.net" agent="Mozilla/5.0 (Windows NT 10.0; Win64; x64) AppleWebKit/537.36 (KHTML, like Gecko) Chrome/130.0.0.0 Safari/537.36" version="24.8.4">
  <diagram name="Página-1" id="gOCrAjvIIX9Jrfl_qxWF">
    <mxGraphModel dx="1434" dy="746" grid="1" gridSize="10" guides="1" tooltips="1" connect="1" arrows="1" fold="1" page="1" pageScale="1" pageWidth="827" pageHeight="1169" math="0" shadow="0">
      <root>
        <mxCell id="0" />
        <mxCell id="1" parent="0" />
        <mxCell id="aSvq0PxvkFczI_9xlrFW-3" value="" style="rounded=0;whiteSpace=wrap;html=1;fillColor=none;" vertex="1" parent="1">
          <mxGeometry x="40" y="120" width="980" height="870" as="geometry" />
        </mxCell>
        <mxCell id="GZ6Jw5iei64gUzXN5UNY-2" value="&lt;font color=&quot;#ffffff&quot; style=&quot;font-size: 14px;&quot;&gt;&lt;b&gt;FORÇAS (Strengths)&lt;/b&gt;&lt;/font&gt;" style="rounded=0;whiteSpace=wrap;html=1;fillColor=#dae8fc;gradientColor=#6686B5;strokeColor=#6c8ebf;shadow=0;gradientDirection=south;" parent="1" vertex="1">
          <mxGeometry x="50" y="260" width="480" height="40" as="geometry" />
        </mxCell>
        <mxCell id="GZ6Jw5iei64gUzXN5UNY-3" value="&lt;b&gt;&lt;font style=&quot;font-size: 14px;&quot; color=&quot;#ffffff&quot;&gt;FRAQUEZAS (Weaknesses)&lt;/font&gt;&lt;/b&gt;" style="rounded=0;whiteSpace=wrap;html=1;fillColor=#e6d0de;gradientColor=#A35878;strokeColor=#996185;" parent="1" vertex="1">
          <mxGeometry x="530" y="260" width="480" height="40" as="geometry" />
        </mxCell>
        <mxCell id="GZ6Jw5iei64gUzXN5UNY-4" value="&lt;blockquote style=&quot;margin: 0 0 0 40px; border: none; padding: 0px;&quot;&gt;&lt;font style=&quot;font-size: 14px;&quot;&gt;&lt;b&gt;Aprendizado Interativo&lt;/b&gt;: A combinação de jogo com aprendizado torna o processo mais envolvente e motivador.&amp;nbsp;&lt;/font&gt;&lt;/blockquote&gt;" style="rounded=0;whiteSpace=wrap;html=1;fillColor=#dae8fc;strokeColor=#6c8ebf;align=left;" parent="1" vertex="1">
          <mxGeometry x="50" y="300" width="480" height="80" as="geometry" />
        </mxCell>
        <mxCell id="GZ6Jw5iei64gUzXN5UNY-5" value="&lt;blockquote style=&quot;margin: 0 0 0 40px; border: none; padding: 0px;&quot;&gt;&lt;font style=&quot;font-size: 14px;&quot;&gt;&lt;b&gt;Complexidade de desenvolvimento&lt;/b&gt;: Criar um jogo que seja educativo e divertido pode ser um desafio técnico e criativo.&lt;/font&gt;&lt;/blockquote&gt;" style="rounded=0;whiteSpace=wrap;html=1;fillColor=#e1d5e7;strokeColor=#9673a6;align=left;" parent="1" vertex="1">
          <mxGeometry x="530" y="300" width="480" height="80" as="geometry" />
        </mxCell>
        <mxCell id="GZ6Jw5iei64gUzXN5UNY-6" value="&lt;blockquote style=&quot;margin: 0 0 0 40px; border: none; padding: 0px;&quot;&gt;&lt;font style=&quot;font-size: 14px;&quot;&gt;&lt;b&gt;Gamificação&lt;/b&gt;: O sistema de certificação e questionários pode aumentar o engajamento e a retenção dos usuários.&lt;/font&gt;&lt;/blockquote&gt;" style="rounded=0;whiteSpace=wrap;html=1;fillColor=#dae8fc;strokeColor=#6c8ebf;align=left;" parent="1" vertex="1">
          <mxGeometry x="50" y="380" width="480" height="80" as="geometry" />
        </mxCell>
        <mxCell id="GZ6Jw5iei64gUzXN5UNY-7" value="&lt;blockquote style=&quot;margin: 0 0 0 40px; border: none; padding: 0px;&quot;&gt;&lt;font style=&quot;font-size: 14px;&quot;&gt;&lt;b&gt;Socialização&lt;/b&gt;: A possibilidade de jogar com amigos pode criar uma comunidade ativa e motivar os usuários a se manterem no aplicativo.&lt;/font&gt;&lt;/blockquote&gt;" style="rounded=0;whiteSpace=wrap;html=1;fillColor=#dae8fc;strokeColor=#6c8ebf;align=left;" parent="1" vertex="1">
          <mxGeometry x="50" y="460" width="480" height="80" as="geometry" />
        </mxCell>
        <mxCell id="GZ6Jw5iei64gUzXN5UNY-8" value="&lt;blockquote style=&quot;margin: 0 0 0 40px; border: none; padding: 0px;&quot;&gt;&lt;font style=&quot;font-size: 14px;&quot;&gt;&lt;b&gt;Variedade de Conteúdos&lt;/b&gt;: Oferecer diferentes etapas e desafios pode atrair uma gama diversificada de aprendizes.&lt;/font&gt;&lt;/blockquote&gt;" style="rounded=0;whiteSpace=wrap;html=1;fillColor=#dae8fc;strokeColor=#6c8ebf;align=left;" parent="1" vertex="1">
          <mxGeometry x="50" y="540" width="480" height="80" as="geometry" />
        </mxCell>
        <mxCell id="GZ6Jw5iei64gUzXN5UNY-9" value="&lt;blockquote style=&quot;margin: 0 0 0 40px; border: none; padding: 0px;&quot;&gt;&lt;font style=&quot;font-size: 14px;&quot;&gt;&lt;b&gt;Necessidade de Atualizações Constantes&lt;/b&gt;: A linguagem de programação e as tecnologias estão sempre evoluindo, exigindo que o aplicativo se atualize regularmente.&lt;/font&gt;&lt;/blockquote&gt;" style="rounded=0;whiteSpace=wrap;html=1;fillColor=#e1d5e7;strokeColor=#9673a6;align=left;" parent="1" vertex="1">
          <mxGeometry x="530" y="380" width="480" height="80" as="geometry" />
        </mxCell>
        <mxCell id="GZ6Jw5iei64gUzXN5UNY-10" value="&lt;blockquote style=&quot;margin: 0 0 0 40px; border: none; padding: 0px;&quot;&gt;&lt;font style=&quot;font-size: 14px;&quot;&gt;&lt;b&gt;Concorrência&lt;/b&gt;: O mercado de aplicativos de aprendizado é competitivo, com várias opções já disponíveis.&lt;/font&gt;&lt;/blockquote&gt;" style="rounded=0;whiteSpace=wrap;html=1;fillColor=#e1d5e7;strokeColor=#9673a6;align=left;" parent="1" vertex="1">
          <mxGeometry x="530" y="460" width="480" height="80" as="geometry" />
        </mxCell>
        <mxCell id="GZ6Jw5iei64gUzXN5UNY-11" value="&lt;blockquote style=&quot;margin: 0 0 0 40px; border: none; padding: 0px;&quot;&gt;&lt;font style=&quot;font-size: 14px;&quot;&gt;&lt;b&gt;Nível de Dificuldade&lt;/b&gt;: Se os níveis não forem bem calibrados, os usuários podem se frustrar ou não se sentir desafiados o suficiente.&lt;/font&gt;&lt;/blockquote&gt;" style="rounded=0;whiteSpace=wrap;html=1;fillColor=#e1d5e7;strokeColor=#9673a6;align=left;" parent="1" vertex="1">
          <mxGeometry x="530" y="540" width="480" height="80" as="geometry" />
        </mxCell>
        <mxCell id="GZ6Jw5iei64gUzXN5UNY-12" value="&lt;font color=&quot;#ffffff&quot; style=&quot;font-size: 14px;&quot;&gt;&lt;b&gt;OPORTUNIDADES (Oportunities)&lt;/b&gt;&lt;/font&gt;" style="rounded=0;whiteSpace=wrap;html=1;fillColor=#d5e8d4;gradientColor=#6D9656;strokeColor=#82b366;" parent="1" vertex="1">
          <mxGeometry x="50" y="620" width="480" height="40" as="geometry" />
        </mxCell>
        <mxCell id="GZ6Jw5iei64gUzXN5UNY-13" value="&lt;font color=&quot;#ffffff&quot; style=&quot;font-size: 14px;&quot;&gt;&lt;b&gt;AMEAÇAS (Threats)&lt;/b&gt;&lt;/font&gt;" style="rounded=0;whiteSpace=wrap;html=1;fillColor=#ffcd28;gradientColor=#FFA500;strokeColor=#d79b00;" parent="1" vertex="1">
          <mxGeometry x="530" y="620" width="480" height="40" as="geometry" />
        </mxCell>
        <mxCell id="GZ6Jw5iei64gUzXN5UNY-14" value="&lt;blockquote style=&quot;margin: 0 0 0 40px; border: none; padding: 0px;&quot;&gt;&lt;font style=&quot;font-size: 14px;&quot;&gt;&lt;b&gt;Expansão de Conteúdos&lt;/b&gt;: Você pode expandir para diferentes linguagens de programação ou até mesmo tópicos relacionados, como algorítimos e estruturas de dados.&lt;/font&gt;&lt;/blockquote&gt;" style="rounded=0;whiteSpace=wrap;html=1;fillColor=#d5e8d4;strokeColor=#82b366;align=left;" parent="1" vertex="1">
          <mxGeometry x="50" y="660" width="480" height="80" as="geometry" />
        </mxCell>
        <mxCell id="GZ6Jw5iei64gUzXN5UNY-15" value="&lt;blockquote style=&quot;margin: 0 0 0 40px; border: none; padding: 0px;&quot;&gt;&lt;font style=&quot;font-size: 14px;&quot;&gt;&lt;b&gt;Mudanças de Mercado&lt;/b&gt;: Novas tecnologias ou métodos de ensino podem mudar as preferências dos usuários.&lt;/font&gt;&lt;/blockquote&gt;" style="rounded=0;whiteSpace=wrap;html=1;fillColor=#fff2cc;strokeColor=#d6b656;align=left;" parent="1" vertex="1">
          <mxGeometry x="530" y="660" width="480" height="80" as="geometry" />
        </mxCell>
        <mxCell id="GZ6Jw5iei64gUzXN5UNY-16" value="&lt;blockquote style=&quot;margin: 0 0 0 40px; border: none; padding: 0px;&quot;&gt;&lt;font style=&quot;font-size: 14px;&quot;&gt;&lt;b&gt;Parcerias Educacionais&lt;/b&gt;: Colaborar com instituições de ensino para promover o aplicativo pode aumentar a credibilidade e o alcance.&lt;/font&gt;&lt;/blockquote&gt;" style="rounded=0;whiteSpace=wrap;html=1;fillColor=#d5e8d4;strokeColor=#82b366;align=left;" parent="1" vertex="1">
          <mxGeometry x="50" y="740" width="480" height="80" as="geometry" />
        </mxCell>
        <mxCell id="GZ6Jw5iei64gUzXN5UNY-17" value="&lt;blockquote style=&quot;margin: 0 0 0 40px; border: none; padding: 0px;&quot;&gt;&lt;font style=&quot;font-size: 14px;&quot;&gt;&lt;b&gt;Melhoria Contínua&lt;/b&gt;: Coletar feedback dos usuários para melhorias constantes e atualização de conteúdos.&amp;nbsp;&lt;/font&gt;&lt;/blockquote&gt;" style="rounded=0;whiteSpace=wrap;html=1;fillColor=#d5e8d4;strokeColor=#82b366;align=left;" parent="1" vertex="1">
          <mxGeometry x="50" y="820" width="480" height="80" as="geometry" />
        </mxCell>
        <mxCell id="GZ6Jw5iei64gUzXN5UNY-18" value="&lt;blockquote style=&quot;margin: 0 0 0 40px; border: none; padding: 0px;&quot;&gt;&lt;font style=&quot;font-size: 14px;&quot;&gt;&lt;b&gt;Marketing Digital&lt;/b&gt;: Utilizar estratégias de marketing digital para alcançar um público mais amplo e aumentar a base para usuários.&lt;/font&gt;&lt;/blockquote&gt;" style="rounded=0;whiteSpace=wrap;html=1;fillColor=#d5e8d4;strokeColor=#82b366;align=left;" parent="1" vertex="1">
          <mxGeometry x="50" y="900" width="480" height="80" as="geometry" />
        </mxCell>
        <mxCell id="GZ6Jw5iei64gUzXN5UNY-19" value="&lt;blockquote style=&quot;margin: 0 0 0 40px; border: none; padding: 0px;&quot;&gt;&lt;font style=&quot;font-size: 14px;&quot;&gt;&lt;b&gt;Saturação do Mercado&lt;/b&gt;: O aumento de aplicativos educacionais pode dificultar a diferenciação do seu produto.&amp;nbsp;&lt;/font&gt;&lt;/blockquote&gt;" style="rounded=0;whiteSpace=wrap;html=1;fillColor=#fff2cc;strokeColor=#d6b656;align=left;" parent="1" vertex="1">
          <mxGeometry x="530" y="740" width="480" height="80" as="geometry" />
        </mxCell>
        <mxCell id="GZ6Jw5iei64gUzXN5UNY-20" value="&lt;blockquote style=&quot;margin: 0 0 0 40px; border: none; padding: 0px;&quot;&gt;&lt;font style=&quot;font-size: 14px;&quot;&gt;&lt;b&gt;Desinteresse do Usuário&lt;/b&gt;: Se o conteúdo não for suficientemente interessante ou relevante, os usuários podem desistir.&lt;/font&gt;&lt;/blockquote&gt;" style="rounded=0;whiteSpace=wrap;html=1;fillColor=#fff2cc;strokeColor=#d6b656;align=left;" parent="1" vertex="1">
          <mxGeometry x="530" y="820" width="480" height="80" as="geometry" />
        </mxCell>
        <mxCell id="GZ6Jw5iei64gUzXN5UNY-21" value="&lt;blockquote style=&quot;margin: 0 0 0 40px; border: none; padding: 0px;&quot;&gt;&lt;font style=&quot;font-size: 14px;&quot;&gt;&lt;b&gt;Desafios Técnicos&lt;/b&gt;: Problemas técnicos ou bugs podem afetar a experiência do usuário e a reputação do aplicativo.&lt;/font&gt;&lt;/blockquote&gt;" style="rounded=0;whiteSpace=wrap;html=1;fillColor=#fff2cc;strokeColor=#d6b656;align=left;" parent="1" vertex="1">
          <mxGeometry x="530" y="900" width="480" height="80" as="geometry" />
        </mxCell>
        <mxCell id="aSvq0PxvkFczI_9xlrFW-2" value="&lt;font style=&quot;font-size: 27px;&quot;&gt;MATRIZ SWOT - SISTEMA LEKA&lt;/font&gt;" style="rounded=1;whiteSpace=wrap;html=1;fillColor=#ffcd28;gradientColor=#ffa500;strokeColor=#d79b00;" vertex="1" parent="1">
          <mxGeometry x="302.5" y="130" width="460" height="90" as="geometry" />
        </mxCell>
      </root>
    </mxGraphModel>
  </diagram>
</mxfile>
